HIERARCHY
ROOT Hips
{
 OFFSET 0.000000 0.000000 0.000000
 CHANNELS 6 Xposition Yposition Zposition Yrotation Xrotation Zrotation
 JOINT Chest
 {
  OFFSET 0.000000 13.173100 -0.061900
  CHANNELS 3 Yrotation Xrotation Zrotation
  JOINT Chest2
  {
   OFFSET 0.000000 8.040800 0.126200
   CHANNELS 3 Yrotation Xrotation Zrotation
   JOINT Chest3
   {
    OFFSET 0.000000 7.994400 0.000000
    CHANNELS 3 Yrotation Xrotation Zrotation
    JOINT Chest4
    {
     OFFSET 0.000000 7.986200 0.000000
     CHANNELS 3 Yrotation Xrotation Zrotation
     JOINT Neck
     {
      OFFSET 0.000000 12.259400 0.000000
      CHANNELS 3 Yrotation Xrotation Zrotation
      JOINT Head
      {
       OFFSET 0.000000 7.518700 0.267100
       CHANNELS 3 Yrotation Xrotation Zrotation
       End Site
       {
        OFFSET 0.000000 13.617700 0.141000
       }
      }
     }
     JOINT RightCollar
     {
      OFFSET -2.983800 8.314300 0.000000
      CHANNELS 3 Yrotation Xrotation Zrotation
      JOINT RightShoulder
      {
       OFFSET -16.133400 0.000000 0.000000
       CHANNELS 3 Yrotation Xrotation Zrotation
       JOINT RightElbow
       {
        OFFSET 0.000000 -29.822100 0.000000
        CHANNELS 3 Yrotation Xrotation Zrotation
        JOINT RightWrist
        {
         OFFSET 0.000000 -24.437700 0.010900
         CHANNELS 3 Yrotation Xrotation Zrotation
         End Site
         {
          OFFSET 0.000000 -18.312300 0.000000
         }
        }
       }
      }
     }
     JOINT LeftCollar
     {
      OFFSET 2.983800 8.314300 0.000000
      CHANNELS 3 Yrotation Xrotation Zrotation
      JOINT LeftShoulder
      {
       OFFSET 16.133400 0.000000 0.000000
       CHANNELS 3 Yrotation Xrotation Zrotation
       JOINT LeftElbow
       {
        OFFSET 0.000000 -29.822100 0.000000
        CHANNELS 3 Yrotation Xrotation Zrotation
        JOINT LeftWrist
        {
         OFFSET 0.000000 -24.437700 0.010900
         CHANNELS 3 Yrotation Xrotation Zrotation
         End Site
         {
          OFFSET 0.000000 -18.312300 0.000000
         }
        }
       }
      }
     }
    }
   }
  }
 }
 JOINT RightHip
 {
  OFFSET -11.206700 0.306200 0.030900
  CHANNELS 3 Yrotation Xrotation Zrotation
  JOINT RightKnee
  {
   OFFSET 0.000000 -57.334900 0.009400
   CHANNELS 3 Yrotation Xrotation Zrotation
   JOINT RightAnkle
   {
    OFFSET 0.000000 -43.376200 0.036600
    CHANNELS 3 Yrotation Xrotation Zrotation
    JOINT RightToe
    {
     OFFSET 0.000000 -10.035500 18.363100
     CHANNELS 3 Yrotation Xrotation Zrotation
     End Site
     {
      OFFSET 0.000000 -1.618500 7.239000
     }
    }
   }
  }
 }
 JOINT LeftHip
 {
  OFFSET 11.206700 0.306200 0.030900
  CHANNELS 3 Yrotation Xrotation Zrotation
  JOINT LeftKnee
  {
   OFFSET 0.000000 -57.334900 0.009400
   CHANNELS 3 Yrotation Xrotation Zrotation
   JOINT LeftAnkle
   {
    OFFSET 0.000000 -43.376200 0.036600
    CHANNELS 3 Yrotation Xrotation Zrotation
    JOINT LeftToe
    {
     OFFSET 0.000000 -10.035500 18.363100
     CHANNELS 3 Yrotation Xrotation Zrotation
     End Site
     {
      OFFSET 0.000000 -1.618500 7.239000
     }
    }
   }
  }
 }
}
MOTION
Frames: 7
Frame Time: 0.008333
0.000000 110.232800 0.000000 0.000000 -5.767877 0.000000 0.000000 11.653817 0.000000 0.000000 -5.885947 0.000000 0.000000 -0.000000 0.000000 0.000000 -0.000000 0.000000 0.000000 12.528835 0.000000 0.000000 0.711642 0.000000 0.000000 -0.000000 0.000000 0.000000 0.000000 -90.000000 0.000000 -2.309062 0.000000 0.000000 2.309062 0.000000 0.000000 -0.000000 0.000000 0.000000 -0.000000 90.000000 0.000000 -2.309062 0.000000 0.000000 2.309062 0.000000 0.000000 8.520406 0.000000 0.000000 1.905762 0.000000 -0.000000 -4.658285 0.000000 0.000000 -0.000000 0.000000 0.000000 8.520406 0.000000 0.000000 1.905762 0.000000 -0.000000 -4.658285 0.000000 0.000000 -0.000000 0.000000
-93.991018 64.358700 93.620120 174.249326 -36.877277 -2.823416 2.537653 21.040948 1.443029 0.319515 2.811347 0.290147 0.515997 4.502388 0.455746 2.387231 18.060053 2.227983 0.041363 14.682733 0.891511 -0.255161 -8.471712 1.666493 -6.254713 -0.380002 -3.505172 -6.637270 -3.007949 1.262150 -118.926344 -44.029384 149.135275 -8.480833 -3.979142 17.313823 -2.374729 0.673635 0.754778 15.716931 -7.221907 3.949199 97.207557 -33.476826 -141.537192 15.259447 6.382573 -20.154700 -3.431965 -44.188881 2.418302 -156.656498 86.928615 -152.592888 -1.158740 -10.942973 -1.611596 0.065127 -0.259738 0.036751 -2.267225 -40.740278 4.367759 73.847592 83.470813 63.287946 -5.804604 -14.493301 8.815674 0.368375 1.279934 0.177364
-93.980569 64.354043 93.603534 174.252680 -36.833537 -2.818818 2.548715 21.078875 1.464563 0.319620 2.814316 0.292239 0.507769 4.496279 0.453879 2.398269 18.077446 2.245709 0.006565 14.603687 0.856803 -0.290000 -8.453524 1.646153 -6.286641 -0.557196 -3.679386 -6.518969 -3.354560 1.093679 -119.220887 -43.508004 149.793531 -8.694846 -4.228767 16.462624 -2.211194 0.416500 0.821068 15.609246 -7.591258 3.803309 97.446485 -33.316218 -142.261704 15.714868 5.960789 -18.628480 -3.411433 -44.234939 2.409777 -157.161494 86.910696 -153.085960 -1.170313 -10.972236 -1.613916 0.054074 -0.256691 0.040742 -2.272096 -40.781790 4.364234 74.080842 83.462236 63.525621 -5.816980 -14.519392 8.810157 0.371460 1.299460 0.184704
-93.969175 64.351903 93.580786 174.260736 -36.807285 -2.811854 2.560629 21.137159 1.485901 0.320518 2.820011 0.295108 0.524043 4.571817 0.481294 2.382263 18.024734 2.237358 -0.032740 14.565197 0.830359 -0.327167 -8.492537 1.613108 -6.312384 -0.716276 -3.812151 -6.383370 -3.740227 0.885989 -119.474740 -42.940374 150.407655 -8.912327 -4.457476 15.751283 -2.050046 0.136642 0.882743 15.440398 -7.976484 3.628508 97.751268 -33.217616 -142.944696 16.107187 5.462377 -17.358612 -3.390009 -44.261542 2.396463 -157.548160 86.881361 -153.460937 -1.183983 -11.006883 -1.613711 0.069841 -0.256141 0.039457 -2.274572 -40.804720 4.353349 74.308511 83.459569 63.758292 -5.824234 -14.538207 8.804875 0.367426 1.296042 0.183161
-93.958997 64.344128 93.563954 174.265233 -36.740927 -2.795616 2.574065 21.157525 1.501164 0.321998 2.827755 0.298978 0.533137 4.608461 0.495995 2.382662 18.018388 2.251094 -0.050528 14.601670 0.817858 -0.386972 -8.604010 1.566235 -6.328061 -0.870619 -3.919645 -6.234885 -4.143156 0.659491 -119.660685 -42.333178 150.953608 -9.131385 -4.673634 15.244754 -1.901506 -0.150588 0.935788 15.217628 -8.379818 3.435751 98.120933 -33.168755 -143.590888 16.441093 4.900546 -16.373844 -3.368044 -44.335865 2.379971 -157.769479 86.845780 -153.675442 -1.182814 -11.038208 -1.614458 0.061756 -0.255722 0.042723 -2.278046 -40.868399 4.339248 74.465597 83.461930 63.914031 -5.827421 -14.561472 8.805994 0.364744 1.303842 0.177785
-93.950145 64.330831 93.554366 174.285467 -36.635116 -2.784060 2.570424 21.140796 1.511518 0.323922 2.836921 0.303497 0.536206 4.622635 0.503286 2.394525 18.039721 2.278028 -0.073632 14.607458 0.795240 -0.439335 -8.663327 1.519616 -6.324436 -1.016542 -4.025222 -6.092818 -4.560997 0.445648 -119.766234 -41.698113 151.421857 -9.346965 -4.874670 14.963950 -1.765865 -0.429112 0.978981 14.954409 -8.805676 3.235419 98.552327 -33.154441 -144.194615 16.745457 4.323820 -15.680018 -3.353093 -44.454840 2.365720 -157.813841 86.804822 -153.719725 -1.186151 -11.065669 -1.603582 0.067419 -0.254313 0.044442 -2.294760 -40.974169 4.320845 74.550373 83.463958 63.992427 -5.818683 -14.585301 8.807948 0.364006 1.325403 0.177047
-93.936796 64.324134 93.537773 174.285812 -36.579147 -2.777022 2.577247 21.128998 1.521660 0.337678 2.890807 0.324541 0.539965 4.638996 0.510880 2.408545 18.064565 2.305679 -0.101410 14.600461 0.764699 -0.479988 -8.676328 1.472957 -6.296496 -1.145132 -4.128178 -5.977238 -4.998298 0.251121 -119.817095 -41.053887 151.837046 -9.556519 -5.055260 14.895919 -1.644547 -0.688960 1.013174 14.671426 -9.259590 3.037617 99.031956 -33.169421 -144.754582 17.040748 3.761632 -15.244143 -3.349116 -44.514903 2.370732 -158.101615 86.777184 -154.004844 -1.180220 -11.097223 -1.613418 0.057152 -0.251609 0.049220 -2.308443 -41.029218 4.320867 74.734898 83.469154 64.176342 -5.808796 -14.606360 8.811014 0.360673 1.338939 0.173406
